<svg width="12" height="13" viewBox="0 0 12 13" fill="none" xmlns="http://www.w3.org/2000/svg">
<path d="M4.64999 10.7875L8.86249 6.5875C8.91249 6.5375 8.94799 6.48333 8.96899 6.425C8.98999 6.36667 9.00033 6.30417 8.99999 6.2375C8.99999 6.17083 8.98949 6.10833 8.96849 6.05C8.94749 5.99167 8.91216 5.9375 8.86249 5.8875L4.64999 1.675C4.53333 1.55833 4.38749 1.5 4.21249 1.5C4.03749 1.5 3.88749 1.5625 3.76249 1.6875C3.63749 1.8125 3.57499 1.95833 3.57499 2.125C3.57499 2.29167 3.63749 2.4375 3.76249 2.5625L7.43749 6.2375L3.76249 9.9125C3.64582 10.0292 3.58749 10.173 3.58749 10.344C3.58749 10.515 3.64999 10.6628 3.77499 10.7875C3.89999 10.9125 4.04582 10.975 4.21249 10.975C4.37916 10.975 4.52499 10.9125 4.64999 10.7875Z" fill="#A9A9A9"/>
</svg>
