<svg width="12" height="12" viewBox="0 0 12 12" fill="none" xmlns="http://www.w3.org/2000/svg">
<path d="M10.2875 4.64999L6.0875 8.86249C6.0375 8.91249 5.98333 8.94799 5.925 8.96899C5.86667 8.98999 5.80417 9.00033 5.7375 8.99999C5.67083 8.99999 5.60833 8.98949 5.55 8.96849C5.49167 8.94749 5.4375 8.91216 5.3875 8.86249L1.175 4.64999C1.05833 4.53333 1 4.38749 1 4.21249C1 4.03749 1.0625 3.88749 1.1875 3.76249C1.3125 3.63749 1.45833 3.57499 1.625 3.57499C1.79167 3.57499 1.9375 3.63749 2.0625 3.76249L5.7375 7.43749L9.4125 3.76249C9.52917 3.64583 9.673 3.58749 9.844 3.58749C10.015 3.58749 10.1628 3.64999 10.2875 3.77499C10.4125 3.89999 10.475 4.04583 10.475 4.21249C10.475 4.37916 10.4125 4.52499 10.2875 4.64999Z" fill="white"/>
</svg>
