<svg width="16" height="16" viewBox="0 0 16 16" fill="none" xmlns="http://www.w3.org/2000/svg">
<path d="M9.80001 13.7168L4.18334 8.11683C4.11668 8.05016 4.06934 7.97794 4.04134 7.90016C4.01334 7.82238 3.99957 7.73905 4.00001 7.65016C4.00001 7.56127 4.01401 7.47794 4.04201 7.40016C4.07001 7.32238 4.11712 7.25016 4.18334 7.1835L9.80001 1.56683C9.95557 1.41127 10.15 1.3335 10.3833 1.3335C10.6167 1.3335 10.8167 1.41683 10.9833 1.5835C11.15 1.75016 11.2333 1.94461 11.2333 2.16683C11.2333 2.38905 11.15 2.5835 10.9833 2.75016L6.08334 7.65016L10.9833 12.5502C11.1389 12.7057 11.2167 12.8975 11.2167 13.1255C11.2167 13.3535 11.1333 13.5506 10.9667 13.7168C10.8 13.8835 10.6056 13.9668 10.3833 13.9668C10.1611 13.9668 9.96668 13.8835 9.80001 13.7168Z" fill="#A9A9A9"/>
</svg>
