<svg width="20" height="20" viewBox="0 0 20 20" fill="none" xmlns="http://www.w3.org/2000/svg">
<path d="M13.5416 2.5C12.8298 2.5 12.2168 2.78943 11.8245 3.23079C11.5811 3.50467 11.4449 3.82963 11.3566 4.16667H2.29162C2.2088 4.1655 2.12657 4.1808 2.04971 4.21168C1.97286 4.24256 1.90291 4.28841 1.84393 4.34657C1.78495 4.40472 1.73811 4.47401 1.70614 4.55043C1.67418 4.62684 1.65771 4.70884 1.65771 4.79167C1.65771 4.87449 1.67418 4.9565 1.70614 5.03291C1.73811 5.10932 1.78495 5.17861 1.84393 5.23677C1.90291 5.29492 1.97286 5.34077 2.04971 5.37165C2.12657 5.40254 2.2088 5.41784 2.29162 5.41667H11.3566C11.4449 5.7537 11.5811 6.07867 11.8245 6.35254C12.2168 6.7939 12.8298 7.08333 13.5416 7.08333C14.2534 7.08333 14.8664 6.7939 15.2587 6.35254C15.5022 6.07867 15.6384 5.7537 15.7267 5.41667H17.7083C17.7911 5.41784 17.8733 5.40254 17.9502 5.37165C18.027 5.34077 18.097 5.29492 18.156 5.23677C18.215 5.17861 18.2618 5.10932 18.2938 5.03291C18.3257 4.9565 18.3422 4.87449 18.3422 4.79167C18.3422 4.70884 18.3257 4.62684 18.2938 4.55043C18.2618 4.47401 18.215 4.40472 18.156 4.34657C18.097 4.28841 18.027 4.24256 17.9502 4.21168C17.8733 4.1808 17.7911 4.1655 17.7083 4.16667H15.7267C15.6384 3.82963 15.5022 3.50467 15.2587 3.23079C14.8664 2.78943 14.2534 2.5 13.5416 2.5ZM13.5416 3.75C13.9409 3.75 14.1613 3.87724 14.3245 4.06087C14.4877 4.24451 14.5833 4.51389 14.5833 4.79167C14.5833 5.06944 14.4877 5.33882 14.3245 5.52246C14.1613 5.7061 13.9409 5.83333 13.5416 5.83333C13.1423 5.83333 12.922 5.7061 12.7587 5.52246C12.5955 5.33882 12.5 5.06944 12.5 4.79167C12.5 4.51389 12.5955 4.24451 12.7587 4.06087C12.922 3.87724 13.1423 3.75 13.5416 3.75ZM6.45828 7.70833C5.74648 7.70833 5.13348 7.99776 4.74116 8.43913C4.49772 8.713 4.36153 9.03796 4.27322 9.375H2.29162C2.2088 9.37383 2.12657 9.38913 2.04971 9.42001C1.97286 9.4509 1.90291 9.49675 1.84393 9.5549C1.78495 9.61305 1.73811 9.68235 1.70614 9.75876C1.67418 9.83517 1.65771 9.91717 1.65771 10C1.65771 10.0828 1.67418 10.1648 1.70614 10.2412C1.73811 10.3177 1.78495 10.3869 1.84393 10.4451C1.90291 10.5033 1.97286 10.5491 2.04971 10.58C2.12657 10.6109 2.2088 10.6262 2.29162 10.625H4.27322C4.36153 10.962 4.49772 11.287 4.74116 11.5609C5.13348 12.0022 5.74648 12.2917 6.45828 12.2917C7.17009 12.2917 7.78308 12.0022 8.17541 11.5609C8.41885 11.287 8.55504 10.962 8.64334 10.625H17.7083C17.7911 10.6262 17.8733 10.6109 17.9502 10.58C18.027 10.5491 18.097 10.5033 18.156 10.4451C18.215 10.3869 18.2618 10.3177 18.2938 10.2412C18.3257 10.1648 18.3422 10.0828 18.3422 10C18.3422 9.91717 18.3257 9.83517 18.2938 9.75876C18.2618 9.68235 18.215 9.61305 18.156 9.5549C18.097 9.49675 18.027 9.4509 17.9502 9.42001C17.8733 9.38913 17.7911 9.37383 17.7083 9.375H8.64334C8.55504 9.03796 8.41885 8.713 8.17541 8.43913C7.78308 7.99776 7.17009 7.70833 6.45828 7.70833ZM6.45828 8.95833C6.85759 8.95833 7.07793 9.08557 7.24116 9.26921C7.40439 9.45284 7.49995 9.72222 7.49995 10C7.49995 10.2778 7.40439 10.5472 7.24116 10.7308C7.07793 10.9144 6.85759 11.0417 6.45828 11.0417C6.05898 11.0417 5.83864 10.9144 5.67541 10.7308C5.51217 10.5472 5.41662 10.2778 5.41662 10C5.41662 9.72222 5.51217 9.45284 5.67541 9.26921C5.83864 9.08557 6.05898 8.95833 6.45828 8.95833ZM12.7083 12.9167C11.9965 12.9167 11.3835 13.2061 10.9912 13.6475C10.7477 13.9213 10.6115 14.2463 10.5232 14.5833H2.29162C2.2088 14.5822 2.12657 14.5975 2.04971 14.6283C1.97286 14.6592 1.90291 14.7051 1.84393 14.7632C1.78495 14.8214 1.73811 14.8907 1.70614 14.9671C1.67418 15.0435 1.65771 15.1255 1.65771 15.2083C1.65771 15.2912 1.67418 15.3732 1.70614 15.4496C1.73811 15.526 1.78495 15.5953 1.84393 15.6534C1.90291 15.7116 1.97286 15.7574 2.04971 15.7883C2.12657 15.8192 2.2088 15.8345 2.29162 15.8333H10.5232C10.6115 16.1704 10.7477 16.4953 10.9912 16.7692C11.3835 17.2106 11.9965 17.5 12.7083 17.5C13.4201 17.5 14.0331 17.2106 14.4254 16.7692C14.6688 16.4953 14.805 16.1704 14.8933 15.8333H17.7083C17.7911 15.8345 17.8733 15.8192 17.9502 15.7883C18.027 15.7574 18.097 15.7116 18.156 15.6534C18.215 15.5953 18.2618 15.526 18.2938 15.4496C18.3257 15.3732 18.3422 15.2912 18.3422 15.2083C18.3422 15.1255 18.3257 15.0435 18.2938 14.9671C18.2618 14.8907 18.215 14.8214 18.156 14.7632C18.097 14.7051 18.027 14.6592 17.9502 14.6283C17.8733 14.5975 17.7911 14.5822 17.7083 14.5833H14.8933C14.805 14.2463 14.6688 13.9213 14.4254 13.6475C14.0331 13.2061 13.4201 12.9167 12.7083 12.9167ZM12.7083 14.1667C13.1076 14.1667 13.3279 14.2939 13.4912 14.4775C13.6544 14.6612 13.75 14.9306 13.75 15.2083C13.75 15.4861 13.6544 15.7555 13.4912 15.9391C13.3279 16.1228 13.1076 16.25 12.7083 16.25C12.309 16.25 12.0886 16.1228 11.9254 15.9391C11.7622 15.7555 11.6666 15.4861 11.6666 15.2083C11.6666 14.9306 11.7622 14.6612 11.9254 14.4775C12.0886 14.2939 12.309 14.1667 12.7083 14.1667Z" fill="#A9A9A9"/>
</svg>
