<svg width="16" height="16" viewBox="0 0 16 16" fill="none" xmlns="http://www.w3.org/2000/svg">
<path d="M13.3203 1.99344C13.2955 1.99423 13.2707 1.9964 13.2461 1.99995H10C9.91166 1.9987 9.82395 2.01502 9.74197 2.04797C9.65999 2.08091 9.58538 2.12982 9.52247 2.19185C9.45955 2.25388 9.4096 2.32779 9.3755 2.40929C9.3414 2.4908 9.32384 2.57827 9.32384 2.66662C9.32384 2.75497 9.3414 2.84244 9.3755 2.92394C9.4096 3.00545 9.45955 3.07936 9.52247 3.14139C9.58538 3.20342 9.65999 3.25233 9.74197 3.28527C9.82395 3.31821 9.91166 3.33453 10 3.33329H11.724L5.52865 9.5286C5.46466 9.59003 5.41358 9.66361 5.37839 9.74503C5.3432 9.82645 5.32461 9.91407 5.32371 10.0028C5.32281 10.0915 5.33961 10.1794 5.37314 10.2616C5.40666 10.3437 5.45624 10.4183 5.51896 10.481C5.58168 10.5437 5.65628 10.5933 5.7384 10.6268C5.82052 10.6603 5.9085 10.6771 5.99719 10.6762C6.08589 10.6753 6.17351 10.6567 6.25493 10.6216C6.33635 10.5864 6.40992 10.5353 6.47135 10.4713L12.6667 4.27599V5.99995C12.6654 6.08829 12.6817 6.176 12.7147 6.25798C12.7476 6.33996 12.7965 6.41457 12.8586 6.47749C12.9206 6.5404 12.9945 6.59036 13.076 6.62446C13.1575 6.65855 13.245 6.67611 13.3333 6.67611C13.4217 6.67611 13.5092 6.65855 13.5907 6.62446C13.6722 6.59036 13.7461 6.5404 13.8081 6.47749C13.8701 6.41457 13.919 6.33996 13.952 6.25798C13.9849 6.176 14.0012 6.08829 14 5.99995V2.75125C14.0133 2.65527 14.0055 2.55755 13.9771 2.46489C13.9488 2.37223 13.9006 2.28686 13.8359 2.21473C13.7712 2.14259 13.6916 2.08543 13.6025 2.04721C13.5135 2.00899 13.4172 1.99065 13.3203 1.99344ZM3.33333 1.99995C2.60462 1.99995 2 2.60458 2 3.33329V12.6666C2 13.3953 2.60462 14 3.33333 14H12.6667C13.3954 14 14 13.3953 14 12.6666V8.66662C14.0012 8.57828 13.9849 8.49057 13.952 8.40859C13.919 8.32661 13.8701 8.252 13.8081 8.18908C13.7461 8.12617 13.6722 8.07621 13.5907 8.04212C13.5092 8.00802 13.4217 7.99046 13.3333 7.99046C13.245 7.99046 13.1575 8.00802 13.076 8.04212C12.9945 8.07621 12.9206 8.12617 12.8586 8.18908C12.7965 8.252 12.7476 8.32661 12.7147 8.40859C12.6817 8.49057 12.6654 8.57828 12.6667 8.66662V12.6666H3.33333V3.33329H7.33333C7.42167 3.33453 7.50938 3.31821 7.59136 3.28527C7.67334 3.25233 7.74795 3.20342 7.81087 3.14139C7.87378 3.07936 7.92374 3.00545 7.95784 2.92394C7.99194 2.84244 8.00949 2.75497 8.00949 2.66662C8.00949 2.57827 7.99194 2.4908 7.95784 2.40929C7.92374 2.32779 7.87378 2.25388 7.81087 2.19185C7.74795 2.12982 7.67334 2.08091 7.59136 2.04797C7.50938 2.01502 7.42167 1.9987 7.33333 1.99995H3.33333Z" fill="#A9A9A9"/>
</svg>
