<svg width="20" height="20" viewBox="0 0 20 20" fill="none" xmlns="http://www.w3.org/2000/svg">
<path d="M9.25009 2C5.25491 2 2.00009 5.25482 2.00009 9.25C2.00009 13.2452 5.25491 16.5 9.25009 16.5C10.9783 16.5 12.5669 15.8895 13.8145 14.875L17.3108 18.3608C17.38 18.4328 17.4627 18.4903 17.5543 18.5299C17.6459 18.5695 17.7445 18.5904 17.8443 18.5914C17.9441 18.5924 18.043 18.5735 18.1354 18.5358C18.2278 18.4981 18.3117 18.4423 18.3823 18.3717C18.4528 18.3012 18.5086 18.2172 18.5463 18.1249C18.584 18.0325 18.603 17.9335 18.6019 17.8337C18.6009 17.7339 18.58 17.6354 18.5404 17.5438C18.5008 17.4522 18.4434 17.3694 18.3714 17.3003L14.8751 13.8145C15.8896 12.5669 16.5001 10.9782 16.5001 9.25C16.5001 5.25482 13.2453 2 9.25009 2ZM9.25009 3.5C12.4346 3.5 15.0001 6.06548 15.0001 9.25C15.0001 10.8013 14.3882 12.2029 13.3956 13.2354C13.3344 13.2803 13.2804 13.3343 13.2354 13.3955C12.203 14.3881 10.8014 15 9.25009 15C6.06557 15 3.50009 12.4345 3.50009 9.25C3.50009 6.06548 6.06557 3.5 9.25009 3.5Z" fill="#A9A9A9"/>
</svg>
