<svg width="20" height="20" viewBox="0 0 20 20" fill="none" xmlns="http://www.w3.org/2000/svg">
<path d="M10.0001 1.6665C5.40511 1.6665 1.66675 5.40487 1.66675 9.99984C1.66675 14.5948 5.40511 18.3332 10.0001 18.3332C14.5951 18.3332 18.3334 14.5948 18.3334 9.99984C18.3334 5.40487 14.5951 1.6665 10.0001 1.6665ZM10.0001 2.9165C13.9195 2.9165 17.0834 6.08042 17.0834 9.99984C17.0834 13.9193 13.9195 17.0832 10.0001 17.0832C6.08066 17.0832 2.91675 13.9193 2.91675 9.99984C2.91675 6.08042 6.08066 2.9165 10.0001 2.9165ZM10.0001 5.83317C9.77907 5.83317 9.56711 5.92097 9.41083 6.07725C9.25455 6.23353 9.16675 6.44549 9.16675 6.6665C9.16675 6.88752 9.25455 7.09948 9.41083 7.25576C9.56711 7.41204 9.77907 7.49984 10.0001 7.49984C10.2211 7.49984 10.4331 7.41204 10.5893 7.25576C10.7456 7.09948 10.8334 6.88752 10.8334 6.6665C10.8334 6.44549 10.7456 6.23353 10.5893 6.07725C10.4331 5.92097 10.2211 5.83317 10.0001 5.83317ZM9.99032 8.74089C9.8247 8.74347 9.66688 8.81169 9.55152 8.93056C9.43616 9.04942 9.37271 9.20922 9.37508 9.37484V13.9582C9.37391 14.041 9.38921 14.1232 9.42009 14.2001C9.45098 14.2769 9.49683 14.3469 9.55498 14.4059C9.61313 14.4648 9.68243 14.5117 9.75884 14.5436C9.83525 14.5756 9.91725 14.5921 10.0001 14.5921C10.0829 14.5921 10.1649 14.5756 10.2413 14.5436C10.3177 14.5117 10.387 14.4648 10.4452 14.4059C10.5033 14.3469 10.5492 14.2769 10.5801 14.2001C10.611 14.1232 10.6263 14.041 10.6251 13.9582V9.37484C10.6263 9.29118 10.6107 9.20814 10.5792 9.13063C10.5477 9.05312 10.501 8.98272 10.4418 8.9236C10.3826 8.86448 10.3121 8.81785 10.2346 8.78646C10.157 8.75508 10.074 8.73958 9.99032 8.74089Z" fill="#9CA3AF"/>
</svg>
