<svg width="18" height="16" viewBox="0 0 18 16" fill="none" xmlns="http://www.w3.org/2000/svg">
<path d="M17.6666 2.62436C17.0286 2.9077 16.3433 3.09836 15.624 3.18436C16.3586 2.74436 16.922 2.0477 17.1873 1.21703C16.5006 1.62436 15.7393 1.92036 14.9286 2.08036C14.28 1.38903 13.356 0.957031 12.3333 0.957031C10.3693 0.957031 8.77731 2.5497 8.77731 4.51303C8.77731 4.7917 8.80931 5.0637 8.86931 5.32303C5.91398 5.17503 3.29398 3.75903 1.53931 1.60703C1.23397 2.13236 1.05864 2.74303 1.05864 3.3957C1.05864 4.62903 1.68597 5.7177 2.63998 6.35503C2.05731 6.33636 1.50864 6.17636 1.02931 5.91037C1.02931 5.9257 1.02931 5.9397 1.02931 5.95503C1.02931 7.67836 2.25464 9.1157 3.88197 9.4417C3.58397 9.52303 3.26931 9.56637 2.94464 9.56637C2.71597 9.56637 2.49264 9.5437 2.27597 9.50303C2.72864 10.9157 4.04198 11.9444 5.59798 11.973C4.38131 12.927 2.84798 13.4957 1.18131 13.4957C0.894642 13.4957 0.611308 13.479 0.332642 13.4457C1.90664 14.4544 3.77531 15.043 5.78398 15.043C12.3253 15.043 15.9013 9.62436 15.9013 4.92503C15.9013 4.77103 15.898 4.6177 15.8913 4.46503C16.5866 3.96303 17.19 3.33703 17.6666 2.62436Z" fill="#A9A9A9"/>
</svg>
