<svg width="19" height="19" viewBox="0 0 19 19" fill="none" xmlns="http://www.w3.org/2000/svg">
<path d="M4.97496 11.5003H1.04996C0.799959 10.7087 0.666626 9.87116 0.666626 9.00033C0.666626 8.12949 0.799959 7.29199 1.04996 6.50033H4.97496C4.87913 7.32116 4.83329 8.16699 4.83329 9.00033C4.83329 9.83366 4.87913 10.6795 4.97496 11.5003ZM5.15413 12.7503C5.44579 14.417 5.94163 15.9253 6.62496 16.9878C4.40829 16.3337 2.57913 14.7795 1.55829 12.7503H5.15413ZM5.15413 5.25033H1.55829C2.57913 3.22116 4.40829 1.66699 6.62496 1.01283C5.94163 2.07533 5.44579 3.58366 5.15413 5.25033ZM10.7875 12.7503V15.4045C10.2875 16.5587 9.67913 17.2628 9.09163 17.3295C9.06246 17.3337 9.02913 17.3337 8.99996 17.3337C8.97079 17.3337 8.93746 17.3337 8.90829 17.3295C7.94996 17.2212 6.94163 15.4295 6.42496 12.7503H10.7875ZM6.42496 5.25033C6.94163 2.57116 7.94996 0.779492 8.90829 0.671159C8.93746 0.666992 8.97079 0.666992 8.99996 0.666992C9.02913 0.666992 9.06246 0.666992 9.09163 0.671159C10.05 0.779492 11.0583 2.57116 11.575 5.25033H6.42496ZM11.8541 7.40033C11.7416 7.41699 11.6291 7.45449 11.525 7.50033C11.075 7.71283 10.7875 8.16283 10.7875 8.65033V11.5003H6.22913C6.13746 10.717 6.08329 9.87949 6.08329 9.00033C6.08329 8.12116 6.13746 7.28366 6.22913 6.50033H11.7708C11.8041 6.79199 11.8333 7.09199 11.8541 7.40033ZM12.8458 5.25033C12.5541 3.58366 12.0583 2.07533 11.375 1.01283C13.5916 1.66699 15.4208 3.22116 16.4416 5.25033H12.8458ZM17.3333 9.00033C17.3333 9.76283 17.2291 10.5003 17.0375 11.2045L13.1416 7.90866C13.1166 7.43366 13.0791 6.96283 13.025 6.50033H16.95C17.2 7.29199 17.3333 8.12949 17.3333 9.00033ZM18.1041 13.5753C18.0416 13.7462 17.8791 13.8587 17.6958 13.8587H15.5958L16.8908 16.7087C17.082 17.1291 16.8945 17.6249 16.4729 17.8137L16.0608 17.9982C15.642 18.1857 15.1508 17.9999 14.9612 17.5824L13.6791 14.7587L12.3875 16.3087C12.2708 16.4503 12.0791 16.5003 11.9083 16.4378C11.7375 16.3753 11.6208 16.2128 11.6208 16.0295V8.65033C11.6208 8.48366 11.7208 8.32949 11.8708 8.25866C12.025 8.18783 12.2083 8.21283 12.3375 8.32116L17.9791 13.0962C18.1166 13.2128 18.1666 13.4045 18.1041 13.5753Z" fill="#A9A9A9"/>
</svg>
